<svg xmlns="http://www.w3.org/2000/svg" id="Layer_1" data-name="Layer 1" viewBox="0 0 256 256" width="256" height="256" fill="none">
  <rect width="256" height="256" fill="{color}" rx="60" /><g transform="translate(32.00,32.00) scale(0.20000)"><defs>
    <style>
      .arc-cls-1 {
        fill: #002dc8;
      }

      .arc-cls-1, .arc-cls-2, .arc-cls-3, .arc-cls-4, .arc-cls-5, .arc-cls-6, .arc-cls-7 {
        fill-rule: evenodd;
      }

      .arc-cls-1, .arc-cls-2, .arc-cls-3, .arc-cls-5, .arc-cls-6, .arc-cls-7 {
        stroke-width: 0px;
      }

      .arc-cls-3 {
        fill: #ff536a;
      }

      .arc-cls-4 {
        stroke-linejoin: round;
        stroke-width: 6.87px;
      }

      .arc-cls-5 {
        fill: #ff9396;
      }

      .arc-cls-6 {
        fill: #4e000a;
      }

      .arc-cls-7 {
        fill: #1a007f;
      }
    </style>
  </defs>
  <g>
    <path class="arc-cls-2" d="M458.36,100.9c37.77,0,72.17,21.77,88.44,55.91l129.56,272.57s0,.13-.13.13c0,0,0-.13.13-.13,30.37-37.23,52.42-81.04,61.82-128.09,10.62-53.09,62.23-87.36,115.32-76.88,53.06,10.6,87.49,62.21,76.89,115.27,0,.01,0,.03,0,.04-21.77,108.73-82.52,205.9-164.78,277.27l47.04,98.92c26.07,54.84-1.21,121.9-59,139.11l-1.75.54c-8.6,2.42-17.47,3.63-26.07,3.63-36.69,0-71.77-20.7-88.57-55.91l-41.8-87.9-85.08-179.02h.27-.27l-41.8-87.9c-2.66-5.57-9.32-7.93-14.89-5.27-2.31,1.1-4.17,2.96-5.27,5.27l-42.74,89.78c-65.19-13.84-130.77-54.16-167.87-103.22l132.12-277.94c16.06-34.32,50.55-56.23,88.44-56.18ZM88.08,342.55c50.13-20.29,107.25,3.9,127.55,54.16,5.24,13.04,12.77,25.81,22.04,38.04l.13.13,4.44,5.64c.4.54.81.94,1.21,1.48l1.21,1.48c.67.67,1.21,1.48,1.88,2.15.13.13.27.27.27.4l-.27-.4c2.55,3.09,5.38,6.05,8.2,9,.13.13.13.27.27.27,9.27,9.68,19.62,18.82,30.78,27.28,5.24,4.03,10.62,7.8,16.13,11.56.54.27.94.67,1.48.94,31.05,20.43,66.66,35.75,102.15,43.28,15.05,3.23,30.11,4.97,44.76,5.11h1.88c19.49,0,38.98-2.42,58.06-6.99l85.08,179.02c-45.97,15.46-94.22,23.92-143.14,23.92-44.08,0-88.71-7.66-131.98-21.5l-40.72,85.61c-23.23,48.85-81.66,69.61-130.51,46.38-1.36-.65-2.7-1.32-4.03-2.03-46.77-24.86-63.84-83.46-41.13-131.31l44.62-93.81c-50.4-42.61-90.59-94.35-113.84-150.53l-.67-1.75c-20.16-50.13,4.03-107.25,54.16-127.55h0Z" />
    <path class="arc-cls-4" d="M458.36,100.9c37.77,0,72.17,21.77,88.44,55.91l129.56,272.57s0,.13-.13.13c0,0,0-.13.13-.13,30.37-37.23,52.42-81.04,61.82-128.09,10.62-53.09,62.23-87.36,115.32-76.88,53.06,10.6,87.49,62.21,76.89,115.27,0,.01,0,.03,0,.04-21.77,108.73-82.52,205.9-164.78,277.27l47.04,98.92c26.07,54.84-1.21,121.9-59,139.11l-1.75.54c-8.6,2.42-17.47,3.63-26.07,3.63-36.69,0-71.77-20.7-88.57-55.91l-41.8-87.9-85.08-179.02h.27-.27l-41.8-87.9c-2.66-5.57-9.32-7.93-14.89-5.27-2.31,1.1-4.17,2.96-5.27,5.27l-42.74,89.78c-65.19-13.84-130.77-54.16-167.87-103.22l132.12-277.94c16.06-34.32,50.55-56.23,88.44-56.18ZM88.08,342.55c50.13-20.29,107.25,3.9,127.55,54.16,5.24,13.04,12.77,25.81,22.04,38.04l.13.13,4.44,5.64c.4.54.81.94,1.21,1.48l1.21,1.48c.67.67,1.21,1.48,1.88,2.15.13.13.27.27.27.4l-.27-.4c2.55,3.09,5.38,6.05,8.2,9,.13.13.13.27.27.27,9.27,9.68,19.62,18.82,30.78,27.28,5.24,4.03,10.62,7.8,16.13,11.56.54.27.94.67,1.48.94,31.05,20.43,66.66,35.75,102.15,43.28,15.05,3.23,30.11,4.97,44.76,5.11h1.88c19.49,0,38.98-2.42,58.06-6.99l85.08,179.02c-45.97,15.46-94.22,23.92-143.14,23.92-44.08,0-88.71-7.66-131.98-21.5l-40.72,85.61c-23.23,48.85-81.66,69.61-130.51,46.38-1.36-.65-2.7-1.32-4.03-2.03-46.77-24.86-63.84-83.46-41.13-131.31l44.62-93.81c-50.4-42.61-90.59-94.35-113.84-150.53l-.67-1.75c-20.16-50.13,4.03-107.25,54.16-127.55h0Z" />
  </g>
  <g>
    <path class="arc-cls-7" d="M320.2,717.53l85.35-179.56c-65.19-13.84-130.77-54.16-167.87-103.22l-89.24,187.63c49.59,42.07,109.13,75.13,171.77,95.16" />
    <path class="arc-cls-6" d="M676.36,429.37c-42.87,52.55-102.41,91.53-166.12,106.72l85.08,179.02c62.09-20.97,120.16-54.84,170.29-98.25,0,0-89.24-187.49-89.24-187.49Z" />
    <path class="arc-cls-7" d="M148.43,622.38l-44.62,93.81c-22.71,47.71-5.64,106.45,41.13,131.31,49.59,26.34,110.61,5.78,134.54-44.35l40.72-85.61c-62.89-20.27-121.23-52.59-171.77-95.16" />
    <path class="arc-cls-5" d="M853.5,224.55c-53.06-10.62-104.68,23.78-115.31,76.84,0,.01,0,.03,0,.04-9.41,47.04-31.45,90.86-61.82,128.09l89.11,187.63c82.25-71.37,143-168.54,164.78-277.27,10.62-53.22-23.79-104.83-76.74-115.32" />
    <path class="arc-cls-1" d="M510.24,536.09c-19.09,4.57-38.57,6.99-58.06,6.99-15.19,0-30.91-1.75-46.64-5.11-65.19-13.84-130.77-54.16-167.87-103.22-9.27-12.23-16.8-25-22.04-38.04-20.29-50.13-77.42-74.32-127.55-54.16-50.13,20.29-74.32,77.42-54.16,127.55,22.98,56.99,63.57,109.27,114.51,152.28,50.49,42.56,108.79,74.88,171.63,95.16,43.14,13.84,87.9,21.5,131.98,21.5,48.92,0,97.17-8.47,143.14-23.92,0,0-84.94-179.02-84.94-179.02Z" />
    <path class="arc-cls-3" d="M812.51,715.79l-47.04-98.92-89.11-187.49-.13.13s0-.13.13-.13l-129.56-272.57c-16.23-34.13-50.64-55.88-88.44-55.91-37.77,0-72.17,21.77-88.44,55.91l-132.12,277.94c37.1,49.06,102.68,89.38,167.87,103.22l42.74-89.78c4.03-8.47,16.13-8.47,20.16,0l41.8,87.9h.27-.27l85.08,179.02,41.8,87.9c16.22,34.2,50.72,55.98,88.57,55.91,8.74,0,17.47-1.21,26.07-3.63,59-16.26,86.96-84.14,60.62-139.51" />
  </g>
  <path class="arc-cls-7" d="M320.2,717.53l85.35-179.56c-65.19-13.84-130.77-54.16-167.87-103.22l-89.24,187.63c49.59,42.07,109.13,75.13,171.77,95.16" />
  <path class="arc-cls-6" d="M676.36,429.37c-42.87,52.55-102.41,91.53-166.12,106.72l85.08,179.02c62.09-20.97,120.16-54.84,170.29-98.25l-89.24-187.49Z" />
  <path class="arc-cls-7" d="M148.43,622.38l-44.62,93.81c-22.71,47.71-5.64,106.45,41.13,131.31,49.59,26.34,110.61,5.78,134.54-44.35l40.72-85.61c-62.89-20.27-121.23-52.59-171.77-95.16" />
  <path class="arc-cls-5" d="M853.5,224.55c-53.06-10.62-104.68,23.78-115.31,76.84,0,.01,0,.03,0,.04-9.41,47.04-31.45,90.86-61.82,128.09l89.11,187.63c82.25-71.37,143-168.54,164.78-277.27,10.62-53.22-23.79-104.83-76.74-115.32" />
  <path class="arc-cls-1" d="M510.24,536.09c-19.09,4.57-38.57,6.99-58.06,6.99-15.19,0-30.91-1.75-46.64-5.11-65.19-13.84-130.77-54.16-167.87-103.22-9.27-12.23-16.8-25-22.04-38.04-20.29-50.13-77.42-74.32-127.55-54.16-50.13,20.29-74.32,77.42-54.16,127.55,22.98,56.99,63.57,109.27,114.51,152.28,50.49,42.56,108.79,74.88,171.63,95.16,43.14,13.84,87.9,21.5,131.98,21.5,48.92,0,97.17-8.47,143.14-23.92,0,0-84.94-179.02-84.94-179.02Z" />
  <path class="arc-cls-3" d="M812.51,715.79l-47.04-98.92-89.11-187.49-.13.13s0-.13.13-.13l-129.56-272.57c-16.23-34.13-50.64-55.88-88.44-55.91-37.77,0-72.17,21.77-88.44,55.91l-132.12,277.94c37.1,49.06,102.68,89.38,167.87,103.22l42.74-89.78c4.03-8.47,16.13-8.47,20.16,0l41.8,87.9h.27-.27l85.08,179.02,41.8,87.9c16.22,34.2,50.72,55.98,88.57,55.91,8.74,0,17.47-1.21,26.07-3.63,59-16.26,86.96-84.14,60.62-139.51" />
</g></svg>
