<?xml version="1.0" encoding="UTF-8" standalone="no"?>
<svg xmlns="http://www.w3.org/2000/svg" version="0.1" id="Layer_1" x="0px" y="0px" width="256" height="256" viewBox="0 0 256 256" enable-background="new 0 0 306 344.35" xml:space="preserve" fill="none">
<rect width="256" height="256" fill="{color}" rx="60" id="rect1" />
	<g transform="matrix(0.90624113,0,0,0.90624113,-10.656683,-28.032452)" id="g3">
		<g id="g1">
			<path fill="#d6af46"
				d="m 153,274.175 c -56.243,0 -102,-45.757 -102,-102 0,-56.243 45.757,-102 102,-102 36.292,0 70.139,19.53 88.331,50.968 l -44.143,25.544 C 188.083,130.951 171.15,121.175 153,121.175 c -28.122,0 -51,22.878 -51,51 0,28.121 22.878,51 51,51 18.152,0 35.085,-9.776 44.191,-25.515 l 44.143,25.543 c -18.192,31.441 -52.04,50.972 -88.334,50.972 z"
				id="path1" />
		</g>
		<g id="g2">
			<polygon fill="#c37c2e"
				points="243.666,156.508 243.666,145.175 232.334,145.175 232.334,156.508 221,156.508 221,167.841 232.334,167.841 232.334,199.175 243.666,199.175 243.666,167.841 255,167.841 255,156.508 "
				id="polygon1" />
		</g>
	</g>
</svg>
