<svg xmlns="http://www.w3.org/2000/svg" width="256" height="256" fill="none" viewBox="0 0 500 500">
<rect width="500" height="500" rx="120" fill="{color}" />
<g transform="translate(0, 500) scale(0.1, -0.1)" fill="none" stroke="none">
	<path d="M2192 2663 l3 -1038 238 -3 237 -2 0 325 c0 179 3 325 8 324 4 0 112 -146 241 -325 l234 -324 294 0 c161 0 293 3 293 6 0 3 -141 173 -312 377 -172 205 -318 379 -325 387 -10 13 41 80 311 405 l323 390 -296 3 c-230 2 -297 -1 -302 -10 -4 -7 -110 -150 -236 -318 l-228 -305 -3 573 -2 572 -240 0 -240 0 2 -1037z" fill="#272727" />
	<path d="M1040 3195 c-203 -46 -335 -138 -401 -280 -40 -85 -53 -170 -39 -259 13 -85 36 -138 84 -192 79 -92 173 -135 460 -210 197 -52 270 -83 291 -124 19 -37 19 -54 -1 -96 -25 -52 -81 -77 -174 -77 -62 0 -85 5 -127 27 -58 29 -100 77 -109 124 l-6 32 -234 0 c-128 0 -235 -3 -237 -7 -9 -17 23 -133 53 -194 48 -95 155 -197 262 -248 139 -67 218 -84 398 -84 173 0 254 15 375 73 269 129 349 468 160 678 -81 89 -187 136 -475 212 -83 22 -171 49 -196 59 -55 25 -87 72 -80 120 10 68 69 104 171 104 114 0 191 -45 220 -130 l13 -38 221 -3 c173 -2 221 0 221 10 0 7 -7 41 -15 75 -47 199 -184 343 -390 410 -68 22 -102 26 -230 29 -107 3 -169 0 -215 -11z" fill="#272727" />
	<circle cx="300" cy="300" r="300" transform="translate(3900, 1625)" fill="#ff9700" />
</g>
</svg>
