<svg xmlns="http://www.w3.org/2000/svg" width="256" height="256" viewBox="0 0 256 256" fill="none">
	<rect width="256" height="256" fill="{color}" rx="60" /><g transform="translate(40.00,40.00) scale(0.78571)"><mask id="mask0_11_1171" style="mask-type:alpha" maskUnits="userSpaceOnUse" x="0" y="0" width="224" height="224">
		<mask id="mask1_11_1171" style="mask-type:alpha" maskUnits="userSpaceOnUse" x="22" y="22" width="180" height="180">
			<circle cx="112" cy="112" r="90" fill="#4C4C4C" />
		</mask>
		<g mask="url(#mask1_11_1171)">
			<circle cx="112" cy="112" r="111.5" fill="#4C4C4C" stroke="url(#paint0_linear_11_1171)" />
		</g>
		<path d="M124.05 223.357C120.084 223.783 116.064 224 112 224C107.936 224 103.916 223.783 99.9502 223.357L104.641 179.608C107.051 179.867 109.506 180 112 180C114.494 180 116.949 179.867 119.359 179.608L124.05 223.357ZM79.3682 171.678C83.6216 174.01 88.1464 175.897 92.8818 177.281L80.541 219.516C72.7051 217.226 65.227 214.105 58.2119 210.258L79.3682 171.678ZM165.788 210.258C158.773 214.105 151.295 217.226 143.459 219.516L131.118 177.281C135.854 175.897 140.378 174.01 144.632 171.678L165.788 210.258ZM59.0029 154.611C62.0817 158.434 65.5659 161.918 69.3887 164.997L41.7891 199.265C35.5112 194.208 29.7916 188.489 24.7354 182.211L59.0029 154.611ZM199.265 182.211C194.208 188.489 188.489 194.208 182.211 199.265L154.611 164.997C158.434 161.918 161.918 158.434 164.997 154.611L199.265 182.211ZM46.7188 131.118C48.1025 135.854 49.9899 140.378 52.3223 144.632L13.7422 165.788C9.89546 158.773 6.77414 151.295 4.48438 143.459L46.7188 131.118ZM219.516 143.459C217.226 151.295 214.105 158.773 210.258 165.788L171.678 144.632C174.01 140.378 175.897 135.854 177.281 131.118L219.516 143.459ZM0 112C0 107.936 0.217443 103.916 0.642578 99.9502L44.3916 104.641C44.1332 107.051 44 109.506 44 112C44 114.494 44.1332 116.949 44.3916 119.359L0.642578 124.05C0.217443 120.084 0 116.064 0 112ZM180 112C180 109.506 179.867 107.051 179.608 104.641L223.357 99.9502C223.783 103.916 224 107.936 224 112C224 116.064 223.783 120.084 223.357 124.05L179.608 119.359C179.867 116.949 180 114.494 180 112ZM52.3223 79.3682C49.9899 83.6216 48.1025 88.1464 46.7188 92.8818L4.48438 80.541C6.77414 72.7051 9.89547 65.227 13.7422 58.2119L52.3223 79.3682ZM210.258 58.2119C214.105 65.227 217.226 72.7051 219.516 80.541L177.281 92.8818C175.897 88.1464 174.01 83.6216 171.678 79.3682L210.258 58.2119ZM69.3887 59.0029C65.5659 62.0817 62.0817 65.5659 59.0029 69.3887L24.7354 41.7891C29.7916 35.5112 35.5112 29.7916 41.7891 24.7354L69.3887 59.0029ZM182.211 24.7354C188.489 29.7916 194.208 35.5112 199.265 41.7891L164.997 69.3887C161.918 65.5659 158.434 62.0817 154.611 59.0029L182.211 24.7354ZM92.8818 46.7188C88.1464 48.1025 83.6216 49.9899 79.3682 52.3223L58.2119 13.7422C65.227 9.89546 72.7051 6.77414 80.541 4.48438L92.8818 46.7188ZM143.459 4.48438C151.295 6.77414 158.773 9.89547 165.788 13.7422L144.632 52.3223C140.378 49.9899 135.854 48.1025 131.118 46.7188L143.459 4.48438ZM112 0C116.064 0 120.084 0.217443 124.05 0.642578L119.359 44.3916C116.949 44.1332 114.494 44 112 44C109.506 44 107.051 44.1332 104.641 44.3916L99.9502 0.642578C103.916 0.217443 107.936 0 112 0Z" fill="url(#paint1_linear_11_1171)" />
		<mask id="mask2_11_1171" style="mask-type:alpha" maskUnits="userSpaceOnUse" x="0" y="0" width="224" height="224">
			<path d="M0 0H112V149H0V0Z" fill="#D9D9D9" />
			<path d="M0 145H224V224H0V145Z" fill="#D9D9D9" />
		</mask>
		<g mask="url(#mask2_11_1171)">
			<path d="M180 112C180 74.4446 149.555 44 112 44C74.4446 44 44 74.4446 44 112C44 149.555 74.4446 180 112 180C149.555 180 180 149.555 180 112ZM224 112C224 173.856 173.856 224 112 224C50.1441 224 0 173.856 0 112C0 50.1441 50.1441 0 112 0C173.856 0 224 50.1441 224 112Z" fill="url(#paint2_linear_11_1171)" />
		</g>
	</mask>
	<g mask="url(#mask0_11_1171)">
		<circle cx="112" cy="112" r="90" stroke="url(#paint3_linear_11_1171)" stroke-width="44" />
	</g>
	<defs>
		<linearGradient id="paint0_linear_11_1171" x1="0" y1="112" x2="224" y2="112" gradientUnits="userSpaceOnUse">
			<stop stop-color="#004DFF" />
			<stop offset="1" stop-color="#1291F2" />
		</linearGradient>
		<linearGradient id="paint1_linear_11_1171" x1="0" y1="112" x2="224" y2="112" gradientUnits="userSpaceOnUse">
			<stop stop-color="#004DFF" />
			<stop offset="1" stop-color="#1291F2" />
		</linearGradient>
		<linearGradient id="paint2_linear_11_1171" x1="0" y1="112" x2="224" y2="112" gradientUnits="userSpaceOnUse">
			<stop stop-color="#004DFF" />
			<stop offset="1" stop-color="#1291F2" />
		</linearGradient>
		<linearGradient id="paint3_linear_11_1171" x1="0" y1="112" x2="224" y2="112" gradientUnits="userSpaceOnUse">
			<stop stop-color="#004DFF" />
			<stop offset="1" stop-color="#1291F2" />
		</linearGradient>
	</defs>
</g></svg>