<svg xmlns="http://www.w3.org/2000/svg" xmlns:ns1="http://www.w3.org/1999/xlink" width="256" height="256"
	viewBox="0 0 256 256" version="1.1" id="svg1" xml:space="preserve" fill="none">
	<rect width="256" height="256" fill="{color}" rx="60" />
	<g transform="translate(32.00,32.00) scale(0.77419)">
		<defs id="defs1">
			<linearGradient ns1:href="#linearGradient75" id="linearGradient76" x1="46.507286" y1="233.96443"
				x2="164.27107" y2="131.59395" gradientUnits="userSpaceOnUse">
				<stop style="stop-color:#005839;stop-opacity:1;" offset="0" id="stop75" />
				<stop style="stop-color:#0095ff;stop-opacity:1;" offset="1" id="stop76" />
			</linearGradient>
			<linearGradient ns1:href="#linearGradient73" id="linearGradient74" x1="168.75529" y1="126.02123"
				x2="153.84413" y2="166.98932" gradientUnits="userSpaceOnUse">
				<stop style="stop-color:#07b6ff;stop-opacity:1;" offset="0" id="stop73" />
				<stop style="stop-color:#037bf4;stop-opacity:0.99607843;" offset="1" id="stop74" />
			</linearGradient>
			<linearGradient  ns1:href="#linearGradient69" id="linearGradient70" x1="152.68674" y1="110.46834"
				x2="88.847191" y2="188.70482" gradientUnits="userSpaceOnUse">
				<stop style="stop-color:#06b4fc;stop-opacity:0.99607843;" offset="0" id="stop69" />
				<stop style="stop-color:#ff0076;stop-opacity:1;" offset="1" id="stop70" />
			</linearGradient>
			<linearGradient ns1:href="#linearGradient67" id="linearGradient68" x1="91.532486" y1="181.06345"
				x2="130.4798" y2="72.766411" gradientUnits="userSpaceOnUse">
				<stop style="stop-color:#a33af3;stop-opacity:1;" offset="0" id="stop67" />
				<stop style="stop-color:#07c0fe;stop-opacity:0.99607843;" offset="1" id="stop68" />
			</linearGradient>
			<linearGradient ns1:href="#linearGradient65" id="linearGradient66" x1="-59.294922" y1="236.81856"
				x2="79.040565" y2="88.035507" gradientUnits="userSpaceOnUse">
				<stop style="stop-color:#006053;stop-opacity:1;" offset="0" id="stop65" />
				<stop style="stop-color:#09c6ff;stop-opacity:0.99215686;" offset="1" id="stop66" />
			</linearGradient>
		</defs>
		<g id="layer1" style="display:inline" transform="matrix(1.5185615,0,0,1.5798785,-29.99699,-106.93363)">
			<g id="g76" transform="translate(-0.34238588,-0.22895902)">
				<g id="g65" style="display:inline">
					<path
						d="m 183.09838,140.67048 c -0.0272,0.47461 -1.14615,18.57327 -15.84141,30.85652 -14.88645,12.44305 -27.75028,16.89107 -27.75592,16.89302 -21.83584,23.88619 -62.310065,31.18675 -90.757255,12.46849 -0.481768,-0.27426 -0.912784,-0.56507 -1.289327,-0.87178 -7.884012,-5.47937 -14.782523,-13.02212 -20.016866,-22.83685 -0.04498,-0.0425 -0.0677,-0.0646 -0.0677,-0.0646 31.177134,71.07693 145.441178,62.49692 155.616348,-23.43526 0.55927,-4.72328 0.52742,-9.0336 0.11213,-13.00955 z"
						style="fill:url(#linearGradient76);stroke:none;stroke-width:0.2" id="path63" />
					<path
						d="m 154.72957,144.36948 c 1.26342,17.73108 -4.89586,32.74766 -15.22852,44.05054 0.006,-0.002 12.86947,-4.44997 27.75592,-16.89302 14.69526,-12.28325 15.81419,-30.38191 15.84141,-30.85652 -2.67134,-25.57556 -22.57898,-36.07996 -22.57898,-36.07996 0,0 9.55769,16.97114 -5.78983,39.77896 z"
						style="fill:url(#linearGradient74);stroke:none;stroke-width:0.2" id="path62" />
				</g>
				<g id="g64" style="display:inline">
					<path
						d="m 169.17469,90.292163 c -0.008,-0.0036 -9.32197,-4.243746 -24.64811,3.08405 -14.9104,7.129027 -18.95741,16.561497 -8.47907,32.170647 12.31253,18.34147 2.54461,42.29986 -11.62978,55.73613 -24.55552,23.2768 -64.304336,26.07799 -75.673935,19.60552 41.908327,27.57569 109.919155,-1.31716 105.985775,-56.51903 -1.64494,-23.08552 -27.89349,-32.18476 -0.42219,-50.715248 6.00866,-3.229501 11.52968,-3.471059 14.86731,-3.362069 z"
						style="display:inline;fill:url(#linearGradient70);stroke:none;stroke-width:0.2" id="path61" />
					<path
						d="M 119.54981,67.913684 C 95.917,67.930006 72.819921,90.331671 84.456344,121.0045 c 0,0 5.16e-4,0 5.16e-4,0 0,0 0,5.2e-4 0,5.2e-4 0,0 0,5.1e-4 0,5.1e-4 51.71665,25.40062 6.852526,66.95633 -27.87375,60.24749 -6.828938,-0.4039 -13.461798,-1.82814 -19.421037,-4.18528 5.532569,5.99583 12.954744,10.64238 21.468457,13.44001 -5.725256,0.63677 -22.98392,-5.57914 -31.192928,-13.32787 5.51774,10.34611 12.88496,18.16746 21.306193,23.70863 11.369599,6.47247 51.118415,3.67128 75.673935,-19.60552 14.17439,-13.43627 23.94231,-37.39466 11.62978,-55.73613 -10.47834,-15.60915 -6.43133,-25.04162 8.47907,-32.170647 15.32614,-7.327796 24.64011,-3.087694 24.64811,-3.08405 -4.49392,-2.919286 -11.20134,-5.507459 -20.27784,-7.200077 C 141.145,72.524029 130.29199,67.906265 119.54981,67.913684 Z m 9.71413,14.049272 c 2.5148,1.62e-4 4.55333,2.038924 4.55321,4.553727 -1.6e-4,2.514601 -2.03861,4.553048 -4.55321,4.55321 -2.5148,1.19e-4 -4.55356,-2.03841 -4.55372,-4.55321 -1.2e-4,-2.515002 2.03872,-4.553846 4.55372,-4.553727 z"
						style="display:inline;fill:url(#linearGradient68);stroke:none;stroke-width:0.2" id="path60" />
				</g>
				<g id="g63" style="display:inline">
					<path
						d="m 56.58311,181.25302 c 34.726276,6.70884 79.5904,-34.84687 27.87375,-60.24749 0,0 0,-5.1e-4 0,-5.1e-4 0,0 0,-5.2e-4 0,-5.2e-4 C 60.113423,109.04782 48.134952,94.454498 54.797689,76.642867 V 76.64235 C 29.089143,89.026467 21.48936,126.03231 46.025098,146.62774 33.726439,143.9787 24.421059,133.88391 22.780005,121.41068 c -9.027637,24.7073 5.335299,54.34263 33.803105,59.84234 z"
						style="fill:url(#linearGradient66);stroke:none;stroke-width:0.2" id="path59" />
				</g>
			</g>
		</g>
	</g>
</svg>
