<svg xmlns="http://www.w3.org/2000/svg" xmlns:ns1="http://sodipodi.sourceforge.net/DTD/sodipodi-0.dtd" xmlns:ns2="http://www.inkscape.org/namespaces/inkscape" width="256" height="256" viewBox="0 0 256 256" fill="none" version="1.1" id="svg3" ns1:docname="svgexport-13.svg" ns2:version="1.4 (86a8ad7, 2024-10-11)">
  <rect width="256" height="256" fill="{color}" rx="60" /><g transform="translate(32.00,32.00) scale(3.00000)"><defs id="defs3" />
  <ns1:namedview id="namedview3" pagecolor="#ffffff" bordercolor="#000000" borderopacity="0.25" ns2:showpageshadow="2" ns2:pageopacity="0.0" ns2:pagecheckerboard="0" ns2:deskcolor="#d1d1d1" ns2:zoom="2.521875" ns2:cx="160" ns2:cy="160" ns2:window-width="1920" ns2:window-height="1009" ns2:window-x="-8" ns2:window-y="-8" ns2:window-maximized="1" ns2:current-layer="svg3" />
  <path fill-rule="evenodd" clip-rule="evenodd" d="M32 44.3077C38.7974 44.3077 44.3077 38.7974 44.3077 32C44.3077 25.2027 38.7974 19.6923 32 19.6923C25.2027 19.6923 19.6923 25.2027 19.6923 32C19.6923 38.7974 25.2027 44.3077 32 44.3077ZM41.8462 32C41.8462 37.4379 37.4379 41.8462 32 41.8462C26.5621 41.8462 22.1538 37.4379 22.1538 32C22.1538 26.5621 26.5621 22.1538 32 22.1538C37.4379 22.1538 41.8462 26.5621 41.8462 32Z" fill="#F2F0E3" id="path1" style="fill:#f47152;fill-opacity:1" />
  <path fill-rule="evenodd" clip-rule="evenodd" d="M53.3333 32C53.3333 43.7821 43.7821 53.3333 32 53.3333C20.2179 53.3333 10.6667 43.7821 10.6667 32C10.6667 20.2179 20.2179 10.6667 32 10.6667C43.7821 10.6667 53.3333 20.2179 53.3333 32ZM32 49.2308C41.5163 49.2308 49.2308 41.5163 49.2308 32C49.2308 22.4837 41.5163 14.7692 32 14.7692C22.4837 14.7692 14.7692 22.4837 14.7692 32C14.7692 41.5163 22.4837 49.2308 32 49.2308Z" fill="#F2F0E3" id="path2" style="fill:#f47152;fill-opacity:1" />
  <path fill-rule="evenodd" clip-rule="evenodd" d="M64 32C64 49.6731 49.6731 64 32 64C14.3269 64 0 49.6731 0 32C0 14.3269 14.3269 0 32 0C49.6731 0 64 14.3269 64 32ZM32 58.2564C46.501 58.2564 58.2564 46.501 58.2564 32C58.2564 17.499 46.501 5.74359 32 5.74359C17.499 5.74359 5.74359 17.499 5.74359 32C5.74359 46.501 17.499 58.2564 32 58.2564Z" fill="#F2F0E3" id="path3" style="fill:#f47152;fill-opacity:1" />
</g></svg>